<svg id="Layer_4" data-name="Layer 4" xmlns="http://www.w3.org/2000/svg" viewBox="0 0 467.39 85.04"><defs><style>.cls-1{fill:#fa5e00;}.cls-2{fill:#00123f;}.cls-3{fill:#fff;}</style></defs><title>Лига Финансы</title><polygon class="cls-1" points="210.84 84.32 202.57 84.32 204.37 75.88 212.63 75.88 210.84 84.32"/><path class="cls-2" d="M106.09,41.38L97.65,84.5H81.84l6.11-30.9H80.22l-1.44,7.19C76.63,71,75,84.5,59.38,84.5a29,29,0,0,1-7.91-1.08l2.16-10.6a22,22,0,0,0,3.41.36,5.08,5.08,0,0,0,4.31-2.69c0.9-1.26,2.16-4.13,4.31-15.09l2.87-14h37.55Zm21.74,0H112L109.69,54h16ZM104.48,79.47l-0.9,5h15.81l5.75-29.28C111.66,56.83,106.81,67.25,104.48,79.47Zm93.06,5H180.83l-1.08-9H167.18l-4.49,9H146.88l23-43.12h21.38ZM179.93,65.1l-1.62-12.94h-0.18l-7,12.94h8.8ZM157.66,54l6.47-12.58H133.76L125.32,84.5h15.81L147.23,54h10.42Z" transform="translate(0 0)"/><circle class="cls-3" cx="28.84" cy="28.81" r="28.75"/><path class="cls-1" d="M23.81,57.19a27.76,27.76,0,0,1-9.34-3.41c7.19-.36,17.43-3.23,19-11.32a6.74,6.74,0,0,0,0-2.69c7-.18,18.15-3.05,19.58-11.5,1.26-7.55-8.08-10.06-10.42-16C42,10.12,42,6.17,43.75,4.55A28.76,28.76,0,0,1,57.22,34,29.15,29.15,0,0,1,23.81,57.19h0ZM13.75,53.42A28.84,28.84,0,0,1,33.69.42a31.13,31.13,0,0,1,9.16,3.41C36,4.19,25.6,7.07,24.17,15.15a7.72,7.72,0,0,0,0,2.87C17,18.21,6,20.9,4.58,29.34c-1.26,7.73,8.08,10.06,10.42,16,0.72,2.34.72,6.29-1.26,8.08h0Zm10.6-35c1.26,5.21,8.44,7.91,10.24,12.94,0.72,2.16.72,6.29-1.26,7.91C32.07,34,24.89,31.32,23.09,26.29c-0.9-2.16-.9-6.11,1.26-7.91h0Z" transform="translate(0 0)"/><path class="cls-1" d="M250.9,46.59h2.34c5.57,0,9.16,2,11.14,4.31a11.91,11.91,0,0,1,3.23,8.62,20.12,20.12,0,0,1-6.83,15.27A21.3,21.3,0,0,1,246.41,80h-2.34l-1.26,4.49h-7.91L236.17,80h-2.34c-3.77,0-8.08-1.26-10.78-3.77a12.68,12.68,0,0,1-3.59-9.16A21.14,21.14,0,0,1,229,49.83a21.77,21.77,0,0,1,11.5-3.41h2.34l1.08-5h7.91ZM237.42,73.9l4.31-21.2h-1.62a11,11,0,0,0-7,2.34c-3.41,2.69-5,7.19-5,11.32a7.88,7.88,0,0,0,2.34,5.93A8.51,8.51,0,0,0,236,73.9h1.44Zm12.22-21.2-4.31,21.2h1.62a12.73,12.73,0,0,0,8.44-3.59,14.47,14.47,0,0,0,3.77-9.88A7.7,7.7,0,0,0,257,54.68a8.23,8.23,0,0,0-5.75-2h-1.62Z" transform="translate(0 0)"/><path class="cls-1" d="M281.44,55.75l-2.87,14.37-1.26,5.21h0.18L294,55.75h8.44L296.53,84.5H289l2.87-14.37,1.26-5.39h-0.18L276.23,84.5H268l5.93-28.75h7.55Z" transform="translate(0 0)"/><path class="cls-1" d="M315.58,55.75l-2.16,10.78h12.22l2.16-10.78h7.55L329.41,84.5h-7.55l2.52-12.4H312.16l-2.52,12.4H302.1L308,55.75h7.55Z" transform="translate(0 0)"/><path class="cls-1" d="M342.89,57a34.68,34.68,0,0,1,4.85-1.44,29.25,29.25,0,0,1,5.57-.54c2.69,0,7,.36,9.34,2.87a8.17,8.17,0,0,1,2,5.57,13.87,13.87,0,0,1-.36,2.69L360.67,84.5h-7.37l0.9-4.31H354a11.17,11.17,0,0,1-4.13,3.41,12,12,0,0,1-5.57,1.26,11.46,11.46,0,0,1-6.11-1.62,7,7,0,0,1-2.87-5.93,9.74,9.74,0,0,1,3.77-7.73c1.26-1.08,4-2.69,8.8-3.05a26.53,26.53,0,0,1,3.77-.18h5l0.36-1.26a3.08,3.08,0,0,0-.9-3.41c-1.44-1.26-3.59-1.44-5.21-1.44a21.69,21.69,0,0,0-4.49.54,19.6,19.6,0,0,0-4.85,2Zm11,14.37c-2.87,0-5.21,0-7.37.9a4.64,4.64,0,0,0-3.23,4.49,2.85,2.85,0,0,0,.9,2.16,4.09,4.09,0,0,0,2.69.72,8.26,8.26,0,0,0,6.11-2.34,12.73,12.73,0,0,0,2.52-5.21l0.18-.72h-1.8Z" transform="translate(0 0)"/><path class="cls-1" d="M379.9,55.75l-2.16,10.78H390l2.16-10.78h7.55L393.73,84.5h-7.55l2.52-12.58H376.48L374,84.5h-7.55l5.93-28.75h7.55Z" transform="translate(0 0)"/><path class="cls-1" d="M424.27,61.32a9.38,9.38,0,0,0-3.77-.72,11.77,11.77,0,0,0-8.44,3.23,13,13,0,0,0-3.59,8.8,6.24,6.24,0,0,0,6.83,6.83,22.92,22.92,0,0,0,6.11-1.08L420.5,84A20.92,20.92,0,0,1,413.67,85c-3.23,0-7.19-.54-10.06-3.77a12.21,12.21,0,0,1-3.05-8.62,16.86,16.86,0,0,1,5.21-12.22c2.87-2.87,7.55-5.21,13.83-5.21a31.64,31.64,0,0,1,6.11.72Z" transform="translate(0 0)"/><path class="cls-1" d="M435.41,65.82h5.39a12.78,12.78,0,0,1,7.73,2,7,7,0,0,1,2.87,6.11,9.93,9.93,0,0,1-3.77,7.55,15.37,15.37,0,0,1-9.88,3.05H424.09L430,55.93h7.55Zm-2.69,13.65H437a7.31,7.31,0,0,0,4-1.08,4.8,4.8,0,0,0,2.34-4.13,2.64,2.64,0,0,0-1.08-2.34,5.41,5.41,0,0,0-3.41-.9h-4.31Zm34.67-23.72L461.46,84.5h-7.55l5.93-28.75h7.55Z" transform="translate(0 0)"/></svg>